<?xml version="1.0" encoding="utf-8"?>
<svg version="1.1" xmlns:xlink="http://www.w3.org/1999/xlink" width="35px" height="30px" xmlns="http://www.w3.org/2000/svg">
  <g transform="matrix(1 0 0 1 -151 -244 )">
    <path d="M 34.5670572916667 24.4453125  C 34.8556857638889 24.7421875  35 25.09375  35 25.5  L 35 28.5  C 35 28.90625  34.8556857638889 29.2578125  34.5670572916667 29.5546875  C 34.2784288194445 29.8515625  33.9366319444445 30  33.5416666666667 30  L 1.45833333333333 30  C 1.06336805555556 30  0.721571180555556 29.8515625  0.432942708333333 29.5546875  C 0.144314236111111 29.2578125  0 28.90625  0 28.5  L 0 25.5  C 0 25.09375  0.144314236111111 24.7421875  0.432942708333333 24.4453125  C 0.721571180555556 24.1484375  1.06336805555556 24  1.45833333333333 24  L 33.5416666666667 24  C 33.9366319444445 24  34.2784288194445 24.1484375  34.5670572916667 24.4453125  Z M 34.5670572916667 12.4453125  C 34.8556857638889 12.7421875  35 13.09375  35 13.5  L 35 16.5  C 35 16.90625  34.8556857638889 17.2578125  34.5670572916667 17.5546875  C 34.2784288194445 17.8515625  33.9366319444445 18  33.5416666666667 18  L 1.45833333333333 18  C 1.06336805555556 18  0.721571180555556 17.8515625  0.432942708333333 17.5546875  C 0.144314236111111 17.2578125  0 16.90625  0 16.5  L 0 13.5  C 0 13.09375  0.144314236111111 12.7421875  0.432942708333333 12.4453125  C 0.721571180555556 12.1484375  1.06336805555556 12  1.45833333333333 12  L 33.5416666666667 12  C 33.9366319444445 12  34.2784288194445 12.1484375  34.5670572916667 12.4453125  Z M 34.5670572916667 0.445312500000001  C 34.8556857638889 0.742187499999998  35 1.09375  35 1.5  L 35 4.5  C 35 4.90625  34.8556857638889 5.2578125  34.5670572916667 5.5546875  C 34.2784288194445 5.8515625  33.9366319444445 6  33.5416666666667 6  L 1.45833333333333 6  C 1.06336805555556 6  0.721571180555556 5.8515625  0.432942708333333 5.5546875  C 0.144314236111111 5.2578125  0 4.90625  0 4.5  L 0 1.5  C 0 1.09375  0.144314236111111 0.742187499999998  0.432942708333333 0.445312500000001  C 0.721571180555556 0.148437499999998  1.06336805555556 0  1.45833333333333 0  L 33.5416666666667 0  C 33.9366319444445 0  34.2784288194445 0.148437499999998  34.5670572916667 0.445312500000001  Z " fill-rule="nonzero" fill="#f5f5f5" stroke="none" transform="matrix(1 0 0 1 151 244 )" />
  </g>
</svg>